# xmcd CD database file
#
# Track frame offsets:
#	150
#	17222
#	36345
#	55252
#	69209
#	104986
#	130286
#	142947
#	160502
#	172857
#	173531
#	186602
#	206527
#
# Disc length: 2762 seconds
#
# Revision: 2
# Processed by: cddbd v1.5.2PL0 Copyright (c) Steve Scherf et al.
# Submitted via: CDex 1.51
#
DISCID=b30ac80d
DTITLE=David Gogo - Skeleton Key
DYEAR=2002
DGENRE=Modern Electric Blues
TTITLE0=(just Ask) Jesse James
TTITLE1=Stay Away From My Home
TTITLE2=I Can Still Hear You Crying
TTITLE3=Things Are About To Change
TTITLE4=It Don't Make Sense
TTITLE5=Reap What You Sow
TTITLE6=Walkin'
TTITLE7=Skeleton Key
TTITLE8=Blackstroke
TTITLE9=Later To That
TTITLE10=Signed, Sealed, Delivered
TTITLE11=Personal Jesus
TTITLE12=Bonus
EXTD=YEAR: 2002
EXTT0=
EXTT1=
EXTT2=
EXTT3=
EXTT4=
EXTT5=
EXTT6=
EXTT7=
EXTT8=
EXTT9=
EXTT10=
EXTT11=
EXTT12=
PLAYORDER=
